<?xml version="1.0" encoding="UTF-8"?>
<svg id="Camada_2" data-name="Camada 2" xmlns="http://www.w3.org/2000/svg" viewBox="0 0 218.32 153.94">
  <defs>
    <style>
      .cls-1 {
        fill: #6fb630;
      }

      .cls-2 {
        fill: #347530;
      }

      .cls-3 {
        fill: #1f1f1f;
      }
    </style>
  </defs>
  <g id="Camada_1-2" data-name="Camada 1">
    <path class="cls-2" d="M144.94,15.5c4.09,3.38,9.23,5.24,14.54,5.24h42.13c9.07,0,16.44,7.23,16.69,16.25V14.69C218.3,6.61,211.74,.05,203.66,.05H123.71c-.18,0-.36,.03-.53,.07,4.51,.44,8.81,2.21,12.32,5.12l9.43,10.26Z"/>
    <path class="cls-3" d="M218.3,36.99c-.25-9.01-7.62-16.25-16.69-16.25h-42.13c-5.31,0-10.45-1.86-14.54-5.24l-9.43-10.26c-3.52-2.91-7.81-4.68-12.32-5.12-.74-.07-1.48-.12-2.22-.12H16.72C7.49,0,0,7.48,0,16.72l.02,120.51c0,9.23,7.49,16.71,16.71,16.71H201.61c9.23,0,16.71-7.49,16.71-16.72V37.45c0-.16-.02-.31-.02-.47Z"/>
    <circle class="cls-3" cx="164.88" cy="10.41" r="5.05"/>
    <circle class="cls-3" cx="179.18" cy="10.41" r="5.05"/>
    <circle class="cls-3" cx="193.48" cy="10.41" r="5.05"/>
  </g>
  <g id="Camada_3" data-name="Camada 3">
    <path class="cls-1" d="M155.99,111.25c7.42-3.32,14.81-6.69,22.22-10.01,.69-.32,1.48-.14,2.13,.19,7.65,3.39,15.3,6.77,22.94,10.16,.35,.21,.88,.43,.9,.9,.12,.78-.72,1.19-1.29,1.5-2.43,1.15-4.84,2.36-7.24,3.57-.57,.24-.28,.99-.35,1.46,.13,2.23-.27,4.53,.38,6.71,.05,.78-.32,1.53-.23,2.32,.23,2.22,.73,4.41,.91,6.63,.16,.74-.4,1.48-1.14,1.56-.92,.03-2.05,.21-2.75-.56-.29-2.61,.38-5.21,.71-7.79,0-.83-.55-1.66-.2-2.48,.6-1.8,.34-3.74,.33-5.6-1.22-1.7-3.1-2.76-4.83-3.87-2.66-1.54-5.31-3.21-8.27-4.11-.8-.27-1.65-.29-2.48-.19,0,.28,.02,.56,.02,.83,1.53,.81,3.25,1.16,4.82,1.88,2.74,1.21,5.33,2.75,7.74,4.53,.67,.59,1.67,1.22,1.5,2.25-.01,2.58,0,5.17-.01,7.75,.06,.76-.66,1.26-1.24,1.62-2.56,1.56-5.47,2.54-8.45,2.83-2.83,.05-5.71,.25-8.5-.34-3.02-.54-5.99-1.77-8.24-3.9-.6-.61-1.24-1.37-1.19-2.28,.01-2.38-.02-4.77,.04-7.15,4.45,1.96,8.79,4.15,13.22,6.15,1.4,.58,3.02,.34,4.32-.39,2.54-1.3,5.21-2.33,7.72-3.7-.12-.21-.36-.64-.48-.85-.47,.04-.95,.07-1.37,.29-2.25,1-4.45,2.08-6.68,3.11-1.13,.59-2.58,.59-3.69-.06-6.24-3-12.53-5.91-18.74-8.96-1.44-.76-3.1-1.19-4.31-2.33,.24-.88,.99-1.38,1.81-1.67Z"/>
  </g>
</svg>