<?xml version="1.0" encoding="UTF-8"?>
<svg id="Camada_2" data-name="Camada 2" xmlns="http://www.w3.org/2000/svg" viewBox="0 0 218.32 153.94">
  <defs>
    <style>
      .cls-1 {
        fill: #6fb630;
      }

      .cls-2 {
        fill: #347530;
      }

      .cls-3 {
        fill: #1f1f1f;
      }
    </style>
  </defs>
  <g id="Camada_1-2" data-name="Camada 1">
    <path class="cls-2" d="M144.94,15.5c4.09,3.38,9.23,5.24,14.54,5.24h42.13c9.07,0,16.44,7.23,16.69,16.25V14.69C218.3,6.61,211.74,.05,203.66,.05H123.71c-.18,0-.36,.03-.53,.07,4.51,.44,8.81,2.21,12.32,5.12l9.43,10.26Z"/>
    <path class="cls-3" d="M218.3,36.99c-.25-9.01-7.62-16.25-16.69-16.25h-42.13c-5.31,0-10.45-1.86-14.54-5.24l-9.43-10.26c-3.52-2.91-7.81-4.68-12.32-5.12-.74-.07-1.48-.12-2.22-.12H16.72C7.49,0,0,7.48,0,16.72l.02,120.51c0,9.23,7.49,16.71,16.71,16.71H201.61c9.23,0,16.71-7.49,16.71-16.72V37.45c0-.16-.02-.31-.02-.47Z"/>
    <circle class="cls-3" cx="164.88" cy="10.41" r="5.05"/>
    <circle class="cls-3" cx="179.18" cy="10.41" r="5.05"/>
    <circle class="cls-3" cx="193.48" cy="10.41" r="5.05"/>
  </g>
  <g id="Camada_3" data-name="Camada 3">
    <g id="_231f20ff" data-name="#231f20ff">
      <path class="cls-1" d="M178.68,94.99c.08-.37,.57-.46,.85-.26,.18,.22,.22,.52,.29,.78,.15,.73,.33,1.46,.48,2.19,.14,.68,.02,1.38,.09,2.06,.09,.41,.64,.3,.88,.58,.1,.36,0,.83,.32,1.09,.23,.23,.59,.13,.88,.15,1.65-.09,3.31,.34,4.74,1.16,1.15,.63,2.1,1.54,3.16,2.29,1.01,.72,2.1,1.39,3.33,1.66,.97,.22,2.04,.06,2.87-.51,1.12-.76,1.81-1.96,2.4-3.15-.24,1.6-.78,3.24-1.92,4.43-1.09,1.16-2.85,1.66-4.39,1.22-1.38-.38-2.58-1.22-3.77-1.99-1.53-1-3.12-1.96-4.89-2.5-.66-.19-1.36-.43-2.04-.2-1.04,.27-1.83,1.29-1.8,2.37,0,5.96,0,11.91,0,17.87,0,.73,.12,1.45,.22,2.17,.17,1.32,.37,2.63,.52,3.95,.38,.02,.78-.02,1.14,.12,.37,.17,.7,.52,.72,.94,.03,.44,.01,.88,.02,1.33,1.57,.05,3.15,.4,4.51,1.21,1.06,.58,1.95,1.42,2.75,2.31-7.24,.01-14.48,.01-21.72,0,.93-1.07,2.03-2.02,3.33-2.61,1.21-.59,2.55-.86,3.9-.88,.03-.45,.03-.89,.05-1.34,.01-.43,.36-.78,.73-.95,.36-.13,.75-.09,1.12-.11,.13-1.25,.33-2.49,.49-3.74,.09-.74,.25-1.47,.25-2.22,0-5.7,0-11.39,0-17.09,0-.48,.03-.97-.05-1.45-.18-.92-.94-1.69-1.86-1.89-.66-.18-1.32,.06-1.95,.24-1.98,.6-3.73,1.74-5.44,2.86-1.02,.66-2.08,1.33-3.26,1.63-1.52,.41-3.24-.09-4.32-1.23-1.15-1.19-1.68-2.83-1.92-4.43,.57,1.12,1.21,2.26,2.23,3.02,.79,.62,1.84,.85,2.82,.68,1.28-.22,2.41-.91,3.46-1.64,1.16-.81,2.19-1.82,3.46-2.47,1.38-.74,2.96-1.13,4.53-1.04,.29-.02,.65,.09,.88-.14,.32-.27,.22-.73,.32-1.09,.24-.28,.78-.17,.88-.58,.08-.75-.07-1.52,.13-2.27,.21-.83,.35-1.68,.58-2.51Z"/>
      <path class="cls-1" d="M187.12,122.99c2.32-4.54,4.65-9.08,6.95-13.63-2.03,4.56-4.2,9.07-6.26,13.62,4.27,.02,8.54,.01,12.81,0-1.45-3.18-2.94-6.33-4.39-9.51-.65-1.38-1.27-2.78-1.96-4.14,.5,.85,.95,1.73,1.39,2.62,1.82,3.55,3.63,7.11,5.45,10.66,.07,.17,.22,.37,.11,.56-.47,1.22-1.49,2.17-2.66,2.72-2.22,1.08-4.84,1.28-7.2,.58-1.82-.49-3.62-1.64-4.25-3.5Z"/>
      <path class="cls-1" d="M157.19,122.74c2.24-4.41,4.51-8.8,6.74-13.22-.15,.52-.43,.99-.65,1.49-1.84,3.99-3.7,7.98-5.54,11.97,4.27,.01,8.54,.01,12.81,0-2.06-4.5-4.16-8.99-6.23-13.49,.48,.82,.87,1.69,1.31,2.53,1.88,3.65,3.73,7.32,5.61,10.97-.35,.97-1.01,1.83-1.87,2.41-1.48,1.02-3.31,1.44-5.08,1.51-1.73-.01-3.49-.39-4.99-1.27-.96-.55-1.75-1.41-2.16-2.45-.06-.16-.04-.31,.05-.45Z"/>
    </g>
  </g>
</svg>