<?xml version="1.0" encoding="UTF-8"?>
<svg id="Camada_2" data-name="Camada 2" xmlns="http://www.w3.org/2000/svg" viewBox="0 0 218.32 153.94">
  <defs>
    <style>
      .cls-1 {
        fill: #6fb630;
      }

      .cls-2 {
        fill: #347530;
      }

      .cls-3 {
        fill: #1f1f1f;
      }
    </style>
  </defs>
  <g id="Camada_1-2" data-name="Camada 1">
    <path class="cls-2" d="M144.94,15.5c4.09,3.38,9.23,5.24,14.54,5.24h42.13c9.07,0,16.44,7.23,16.69,16.25V14.69C218.3,6.61,211.74,.05,203.66,.05H123.71c-.18,0-.36,.03-.53,.07,4.51,.44,8.81,2.21,12.32,5.12l9.43,10.26Z"/>
    <path class="cls-3" d="M218.3,36.99c-.25-9.01-7.62-16.25-16.69-16.25h-42.13c-5.31,0-10.45-1.86-14.54-5.24l-9.43-10.26c-3.52-2.91-7.81-4.68-12.32-5.12-.74-.07-1.48-.12-2.22-.12H16.72C7.49,0,0,7.48,0,16.72l.02,120.51c0,9.23,7.49,16.71,16.71,16.71H201.61c9.23,0,16.71-7.49,16.71-16.72V37.45c0-.16-.02-.31-.02-.47Z"/>
    <circle class="cls-3" cx="164.88" cy="10.41" r="5.05"/>
    <circle class="cls-3" cx="179.18" cy="10.41" r="5.05"/>
    <circle class="cls-3" cx="193.48" cy="10.41" r="5.05"/>
  </g>
  <g id="Camada_3" data-name="Camada 3">
    <g id="_323031ff" data-name="#323031ff">
      <path class="cls-1" d="M167.95,105.98c.43-3.17,2.61-5.75,5.48-7.07-.01,3.41-2.42,5.99-5.48,7.07Z"/>
      <path class="cls-1" d="M190.12,99.33c3.28,.63,5.62,3.42,5.88,6.72-2.95-1.16-5.33-3.53-5.88-6.72Z"/>
      <path class="cls-1" d="M163.93,111.06c-.76-3.38-.28-7.03,2.69-9.07,.47,3.31,.3,7.03-2.69,9.07Z"/>
      <path class="cls-1" d="M199.86,111.21c-2.58-2.41-3.67-5.98-2.35-9.31,2.42,2.54,3.25,5.94,2.35,9.31Z"/>
      <path class="cls-1" d="M167.22,107.98c2.06-2.73,5.79-3.3,8.86-2.07-2.51,1.87-5.78,2.71-8.86,2.07Z"/>
      <path class="cls-1" d="M187.89,105.44c3.17-.46,6.72-.17,8.62,2.69-3.08,.52-6.63-.07-8.62-2.69Z"/>
      <path class="cls-1" d="M181.71,107.77c1.21,2.4,2.23,4.89,3.31,7.35,2.71,.2,5.43,.36,8.14,.6-1.87,1.87-3.91,3.58-5.96,5.27,.72,2.47,1.41,4.96,1.78,7.52-2.36-1.18-4.41-3.05-6.98-3.77-2.63,.78-4.72,2.78-7.33,3.67,.59-2.51,1.35-4.97,2.12-7.43-2.04-1.68-4.06-3.37-5.95-5.23,2.65-.19,5.31-.32,7.96-.45,.98-2.51,1.9-5.04,2.9-7.53Z"/>
      <path class="cls-1" d="M161.21,107.99c1.96,2.48,1.96,5.81,1.26,8.76-2.85-2.04-2.28-5.83-1.26-8.76Z"/>
      <path class="cls-1" d="M202.54,108c1.52,3.13,1.15,6.71-.87,9.56-1.32-3.17-1.22-6.75,.87-9.56Z"/>
      <path class="cls-1" d="M163.27,115.15c1.08-2.93,3.41-5.34,6.53-5.99-.56,1.47-.96,3.17-2.25,4.2-1.32,.83-2.81,1.31-4.27,1.8Z"/>
      <path class="cls-1" d="M200.29,115.18c-2.96-.62-5.91-2.74-5.7-6.12,2.9,.87,5.35,3,5.7,6.12Z"/>
      <path class="cls-1" d="M162.59,123.12c-2.24-1.92-5.15-4.96-3.49-8.15,2.89,1.79,3.67,4.97,3.49,8.15Z"/>
      <path class="cls-1" d="M163.52,123.58c-.72-3.36,.76-6.41,3.41-8.4,.74,3.31-.82,6.46-3.41,8.4Z"/>
      <path class="cls-1" d="M197.02,115.03c2.69,1.91,3.7,4.97,3.34,8.17-1.08-1.03-2.13-2.11-3-3.32-.6-1.53-.31-3.24-.34-4.85Z"/>
      <path class="cls-1" d="M200.83,123.19c.27-3.28,1.5-6.92,4.79-8.25-.27,3.28-1.5,6.92-4.79,8.25Z"/>
      <path class="cls-1" d="M166.93,130.24c-1.03-2.72-1.62-6.11,.48-8.46,1.06,2.73,1.69,6.08-.48,8.46Z"/>
      <path class="cls-1" d="M196.5,129.98c-1.16-2.65-1.68-6.01,.58-8.24,.93,2.64,2,6.2-.58,8.24Z"/>
      <path class="cls-1" d="M158.78,122.46c1.59,.64,3.32,1.12,4.64,2.25,1.03,1.26,1.54,2.84,2.2,4.3-3.25-.81-5.97-3.28-6.84-6.55Z"/>
      <path class="cls-1" d="M198.33,129.02c.54-3.59,3.62-5.85,7.03-6.51-1.19,3.17-3.74,5.6-7.03,6.51Z"/>
      <path class="cls-1" d="M169.35,127.59c3.1,1.18,4.52,4.11,5.3,7.11-2.92-1.24-5.63-3.55-5.3-7.11Z"/>
      <path class="cls-1" d="M194.62,127.52c.29,3.47-2.34,6.27-5.51,7.08,.79-3.02,2.83-5.51,5.51-7.08Z"/>
      <path class="cls-1" d="M161.62,129.82c3.67-.9,6.7,1.26,8.81,3.97-3.61,.68-6.62-1.34-8.81-3.97Z"/>
      <path class="cls-1" d="M193.65,133.85c1.64-3.18,5.16-4.54,8.64-4.08-2.06,2.79-5.1,4.47-8.64,4.08Z"/>
      <path class="cls-1" d="M174.75,131.75c3.39,.53,5.66,2.95,7.06,5.95-3.31-.42-6.04-2.79-7.06-5.95Z"/>
      <path class="cls-1" d="M182.34,137.53c1.12-2.99,3.56-5.51,6.87-5.77-1.17,2.95-3.49,5.65-6.87,5.77Z"/>
      <path class="cls-1" d="M166.77,136.16c2.75-2.22,6.68-1.43,9.16,.79-3.07,1.16-6.4,1.03-9.16-.79Z"/>
      <path class="cls-1" d="M188.04,136.84c2.71-2.21,6.74-2.74,9.61-.53-3.11,1.28-6.42,2-9.61,.53Z"/>
      <path class="cls-1" d="M172.74,140.08c2.09-2.75,5.76-2.64,8.81-1.95-2.14,2.54-5.81,2.59-8.81,1.95Z"/>
      <path class="cls-1" d="M182.06,138.18c3.21-.74,6.89-.92,9.18,1.87-3.2,.43-6.8,.67-9.18-1.87Z"/>
    </g>
  </g>
</svg>