<?xml version="1.0" encoding="UTF-8"?>
<svg id="Camada_2" data-name="Camada 2" xmlns="http://www.w3.org/2000/svg" viewBox="0 0 218.32 153.94">
  <defs>
    <style>
      .cls-1 {
        fill: #6fb630;
      }

      .cls-2 {
        fill: #347530;
      }

      .cls-3 {
        fill: #1f1f1f;
      }
    </style>
  </defs>
  <g id="Camada_1-2" data-name="Camada 1">
    <path class="cls-2" d="M144.94,15.5c4.09,3.38,9.23,5.24,14.54,5.24h42.13c9.07,0,16.44,7.23,16.69,16.25V14.69C218.3,6.61,211.74,.05,203.66,.05H123.71c-.18,0-.36,.03-.53,.07,4.51,.44,8.81,2.21,12.32,5.12l9.43,10.26Z"/>
    <path class="cls-3" d="M218.3,36.99c-.25-9.01-7.62-16.25-16.69-16.25h-42.13c-5.31,0-10.45-1.86-14.54-5.24l-9.43-10.26c-3.52-2.91-7.81-4.68-12.32-5.12-.74-.07-1.48-.12-2.22-.12H16.72C7.49,0,0,7.48,0,16.72l.02,120.51c0,9.23,7.49,16.71,16.71,16.71H201.61c9.23,0,16.71-7.49,16.71-16.72V37.45c0-.16-.02-.31-.02-.47Z"/>
    <circle class="cls-3" cx="164.88" cy="10.41" r="5.05"/>
    <circle class="cls-3" cx="179.18" cy="10.41" r="5.05"/>
    <circle class="cls-3" cx="193.48" cy="10.41" r="5.05"/>
    <path class="cls-1" d="M139.08,74.08h.01s0,0-.01,0h0Z"/>
    <g id="_194e6dff" data-name="#194e6dff">
      <path class="cls-1" d="M171.17,89.44c.16-.56,1.13-.49,1.2,.1,.08,.67,.02,1.34,.02,2.01,.4,.03,.82-.02,1.2,.12,.26,.15,.28,.48,.29,.74,0,1.99-.03,3.98,.02,5.98,.65,0,1.3-.02,1.95-.02,.07-1.26,0-2.52,.03-3.79-.02-.34,.23-.67,.58-.67,1.03-.06,2.06,.02,3.1-.03,.01-.65-.03-1.3,.01-1.95,0-.24,.13-.5,.38-.57,.42-.1,.86-.06,1.29-.06,2,0,4.01,0,6.01,0,.29,.01,.65,0,.85,.25,.15,.21,.12,.49,.14,.74,0,1.39-.01,2.77,0,4.16,.75,0,1.5-.03,2.25,0,.27,0,.59,.06,.71,.33,.17,.33-.04,.67-.21,.95-.76,1.16-1.51,2.33-2.25,3.5-.29,.46-.64,.93-1.16,1.13-.6,.22-1.26,.14-1.89,.15-6.16,.03-12.33,.06-18.49,.1-.44,0-.9-.03-1.29-.26-.51-.29-.84-.81-1-1.36-.29-.91-.2-1.87-.22-2.8,0-.43-.03-.86,.05-1.28,.04-.21,.23-.38,.44-.41,.45-.07,.91-.03,1.37-.04,.34-1.29,.74-2.57,1.09-3.86,.08-.27,.14-.54,.29-.78,.15-.24,.47-.22,.72-.24,.83-.01,1.67,.02,2.5,0,.02-.71-.07-1.42,.05-2.12m13.35,3.15c0,.43,0,.86,0,1.29,.8,.05,1.61,.03,2.41,.02,0-.44,0-.87-.03-1.31-.79,.01-1.59,.01-2.38,0m-3.68,.03c0,.43,0,.85,0,1.27,.79,.02,1.59,.02,2.38,0,.01-.43,0-.85,0-1.28-.79-.02-1.59-.02-2.38,0m-11.98,.35c-.27,1.13-.65,2.24-.95,3.36,.84,0,1.67,0,2.51,0,.36,0,.76-.03,1.07,.19,.39,.27,.71,.61,1.06,.93-.03-1.5-.02-3,0-4.5-1.23,.02-2.46-.02-3.68,.02m8.29,2.23c0,.42,0,.84,.01,1.26,.79-.01,1.58-.01,2.37,0,0-.42,.01-.84,0-1.26-.8,0-1.6,0-2.4,0m3.69,0c0,.41,0,.82,0,1.23,.8,.02,1.61,.04,2.41,0,0-.41,0-.81,0-1.22-.8-.02-1.61-.01-2.41,0m3.68,0c0,.42,0,.83,0,1.25,.81,0,1.62,0,2.43,0,0-.42,0-.84,0-1.25-.81-.02-1.63-.02-2.44,0m-7.35,2.53c0,.22,0,.45,0,.67,.8,.01,1.6,.01,2.4,0,0-.22-.01-.44-.02-.66-.79,0-1.58,0-2.37,0m3.65,.07c0,.19,0,.39,0,.59,.82,.01,1.64,.04,2.46,0,.36,0,.56-.36,.79-.59-1.08-.05-2.17-.08-3.25,0Z"/>
      <path class="cls-1" d="M169.38,93.25c.32-.13,.78-.06,.91,.3,.15,.53,.09,1.09,.08,1.64,.03,.4-.36,.8-.76,.76-.27-.11-.55-.33-.55-.64-.04-.52-.05-1.04,0-1.56,0-.21,.15-.39,.33-.49Z"/>
      <path class="cls-1" d="M171.18,93.25c.43-.2,.94,.15,.97,.61,.04,.48,.05,.97,0,1.45-.03,.29-.27,.52-.53,.63-.4,.11-.81-.24-.85-.63-.05-.48-.05-.97,0-1.45,.02-.26,.19-.49,.42-.61Z"/>
      <path class="cls-1" d="M188.65,104.43c0-.29,.24-.55,.53-.55,.58-.02,1.17,.04,1.75,.13,.24,.03,.47,.19,.53,.44,.11,.34-.18,.62-.35,.88,.28,.29,.56,.57,.84,.86,3.57,3.72,5.56,8.92,5.33,14.08-.02,.18-.06,.36-.2,.48-.29,.27-.84,.19-1.01-.18-.08-.25-.06-.52-.06-.78,.03-1.72-.21-3.44-.66-5.1-.91-3.34-2.85-6.36-5.4-8.68-.06,.23-.08,.47-.2,.68-.31,.31-.98,.21-1.07-.25-.09-.67-.06-1.35-.02-2.02Z"/>
      <path class="cls-1" d="M165.19,104.83c.29-.24,.57-.53,.93-.67,.36-.11,.77,.15,.79,.53,.06,.31-.19,.55-.41,.73-4.11,3.25-6.69,8.38-6.79,13.62,.25,0,.51-.04,.75,.04,.3,.15,.44,.56,.26,.86-.22,.44-.53,.83-.79,1.25-.17,.23-.35,.55-.67,.57-.33,.03-.57-.24-.8-.44-.38-.38-.8-.73-1.14-1.15-.26-.28-.16-.8,.19-.96,.31-.17,.63,.06,.91,.17,0-3.08,.79-6.16,2.23-8.88,1.13-2.16,2.69-4.08,4.53-5.68Z"/>
      <path class="cls-1" d="M176.18,107.3c.31-.11,.64-.08,.97-.09,.72,.02,1.45,0,2.17,0,.27,.02,.61,0,.8,.24,.12,.21,.15,.46,.2,.69,.11,.71,.23,1.42,.35,2.12,.52,.19,1.03,.4,1.54,.63,.53-.33,1.04-.7,1.54-1.07,.27-.19,.54-.41,.86-.5,.27-.06,.48,.14,.66,.3,.51,.49,.98,1.02,1.5,1.5,.26,.26,.55,.49,.72,.82,.14,.32-.09,.64-.25,.89-.43,.6-.93,1.14-1.28,1.78,.22,.51,.43,1.02,.62,1.54,.74,.16,1.49,.26,2.24,.38,.28,.06,.64,.11,.76,.41,.09,.29,.07,.61,.07,.91-.01,.64-.01,1.28,0,1.92,0,.3,.01,.61-.08,.9-.16,.27-.5,.31-.78,.37-.73,.12-1.46,.22-2.18,.36-.19,.54-.49,1.04-.61,1.6,.39,.72,.97,1.32,1.4,2.02,.11,.18,.19,.41,.1,.61-.14,.29-.4,.51-.62,.74-.49,.47-.96,.96-1.44,1.44-.19,.18-.38,.38-.64,.45-.31,.06-.57-.17-.81-.32-.58-.43-1.16-.86-1.77-1.25-.5,.25-1.07,.37-1.53,.7-.24,.8-.25,1.64-.45,2.45-.05,.23-.21,.47-.46,.5-.43,.07-.87,.03-1.31,.04-.64-.02-1.29,.02-1.93,0-.25,0-.55-.08-.63-.34-.27-.85-.25-1.77-.51-2.62-.27-.25-.65-.33-.98-.49-.24-.08-.53-.29-.77-.09-.61,.38-1.15,.86-1.75,1.26-.2,.13-.45,.26-.69,.16-.26-.13-.46-.35-.66-.55-.51-.53-1.04-1.05-1.56-1.56-.17-.19-.38-.37-.43-.63-.03-.27,.16-.5,.29-.71,.44-.6,.88-1.2,1.3-1.81-.24-.51-.37-1.07-.7-1.53-.84-.31-1.76-.26-2.6-.52-.16-.05-.31-.18-.34-.36-.08-.42-.05-.86-.05-1.29,.01-.64-.02-1.29,0-1.93,.02-.22,.02-.48,.21-.63,.21-.15,.48-.18,.72-.23,.71-.11,1.43-.22,2.13-.37,.18-.52,.39-1.03,.61-1.53-.42-.64-.9-1.24-1.32-1.88-.13-.21-.3-.45-.25-.71,.11-.3,.36-.51,.58-.73,.55-.53,1.08-1.08,1.62-1.62,.22-.21,.51-.47,.83-.32,.84,.39,1.46,1.14,2.31,1.5,.52-.15,1.01-.41,1.52-.59,.14-.73,.25-1.46,.36-2.19,.06-.28,.09-.65,.4-.78m.88,1.26c-.14,.65-.2,1.31-.29,1.96-.06,.3-.11,.66-.41,.82-.44,.23-.94,.32-1.39,.54-.4,.17-.75,.44-1.18,.53-.77-.31-1.34-.96-2.05-1.36-.11-.06-.27-.15-.39-.04-.48,.35-.85,.82-1.27,1.24,.38,.57,.8,1.11,1.19,1.67,.15,.25,.37,.53,.28,.84-.13,.45-.4,.84-.57,1.28-.16,.37-.24,.78-.44,1.13-.12,.21-.39,.23-.6,.3-.7,.14-1.42,.25-2.12,.37,0,.67,0,1.35,0,2.02,.69,.11,1.38,.2,2.07,.32,.24,.06,.55,.09,.67,.33,.25,.5,.34,1.07,.61,1.56,.15,.36,.42,.7,.4,1.1-.09,.33-.32,.6-.52,.88-.34,.44-.66,.89-.96,1.36,.46,.46,.92,.92,1.39,1.36,.59-.42,1.15-.86,1.75-1.26,.22-.13,.49-.32,.76-.2,.43,.15,.82,.41,1.25,.57,.38,.16,.78,.24,1.15,.43,.24,.14,.25,.45,.31,.7,.1,.71,.22,1.41,.38,2.1,.65,0,1.3,0,1.94,0,.11-.64,.19-1.28,.29-1.92,.06-.28,.09-.6,.28-.83,.3-.24,.7-.29,1.05-.42,.5-.15,.94-.46,1.43-.63,.3-.12,.58,.11,.83,.26,.56,.4,1.11,.82,1.68,1.21,.47-.45,.92-.91,1.4-1.36-.36-.56-.77-1.09-1.16-1.63-.16-.25-.39-.52-.31-.83,.12-.43,.37-.8,.53-1.21,.18-.41,.25-.85,.46-1.25,.12-.24,.41-.28,.65-.34,.7-.13,1.4-.23,2.11-.3,0-.67,0-1.35,0-2.02-.81-.16-1.64-.21-2.44-.43-.35-.08-.4-.49-.51-.76-.18-.64-.49-1.23-.76-1.83-.13-.22,.03-.46,.13-.65,.39-.67,.89-1.26,1.32-1.9-.45-.42-.83-.93-1.34-1.28-.04,0-.12,0-.16,0-.8,.38-1.39,1.1-2.21,1.44-.37-.07-.68-.29-1.02-.45-.44-.23-.92-.36-1.38-.54-.2-.08-.43-.19-.45-.43-.19-.8-.27-1.63-.41-2.44-.66,0-1.32,0-1.98,0Z"/>
      <path class="cls-1" d="M176.95,113.82c1.8-.38,3.79,.26,4.98,1.68,.49,.68,.98,1.41,1.13,2.26,.08,.51,.08,1.04,.06,1.56-.06,1.31-.77,2.52-1.75,3.37-1.11,.95-2.63,1.44-4.08,1.21-1.46-.27-2.81-1.17-3.59-2.44-1-1.62-.94-3.8,.08-5.4,.7-1.14,1.9-1.93,3.19-2.24m.24,1.32c-1.59,.34-2.83,1.82-2.91,3.44-.08,1.06,.35,2.12,1.08,2.88,.71,.73,1.73,1.15,2.75,1.12,1.29-.01,2.54-.75,3.19-1.87,.64-1.06,.67-2.43,.16-3.55-.42-.79-1.1-1.46-1.93-1.81-.73-.32-1.57-.39-2.35-.21Z"/>
      <path class="cls-1" d="M158.84,123.95c.33-.19,.7-.08,1.03,.06,2.39,1.02,4.77,2.03,7.17,3.03,.25,.12,.6,.25,.63,.57,.06,.47,.03,.95,.03,1.43,0,2.08,0,4.16,0,6.24,0,.47,.03,.95-.04,1.42-.04,.28-.34,.39-.56,.51-2.42,1.02-4.82,2.07-7.24,3.1-.32,.17-.69,.08-1-.07-2.31-1.03-4.63-2.02-6.95-3.01-.2-.1-.43-.19-.55-.38-.08-.19-.08-.4-.09-.59,0-2.73,0-5.45,0-8.18,.01-.23,0-.47,.11-.67,.13-.17,.33-.25,.51-.34,2.32-1.03,4.64-2.06,6.96-3.1m-.09,1.46c-1.71,.78-3.44,1.54-5.16,2.31,.56,.24,1.11,.52,1.69,.72,.15,.07,.32,.02,.46-.04,1.85-.79,3.71-1.59,5.57-2.36-.63-.24-1.24-.56-1.88-.76-.24-.08-.47,.06-.68,.14m4.07,1.43c-.35,.11-.68,.27-1.02,.42-1.53,.67-3.07,1.29-4.6,1.96,.67,.32,1.35,.63,2.04,.89,.24,.1,.49-.05,.72-.13,1.76-.76,3.56-1.46,5.31-2.24-.59-.27-1.19-.52-1.78-.78-.21-.07-.44-.21-.67-.12m-10.25,1.94c0,2.43,0,4.86,0,7.29,1.18,.55,2.4,1.03,3.59,1.57,.86,.38,1.72,.76,2.59,1.11,0-2.47,0-4.93,0-7.4-.89-.38-1.77-.78-2.68-1.12,0,.56,.05,1.12-.03,1.67-.1,.48-.79,.59-1.1,.26-.17-.15-.16-.39-.18-.6-.02-.63,0-1.26,0-1.88-.72-.33-1.44-.64-2.19-.9m11.27,1.01c-1.24,.52-2.48,1.03-3.72,1.56,0,.75,.01,1.5-.02,2.25-.09,1.17,.07,2.34,.04,3.51-.02,.55-.04,1.09-.03,1.64,2.08-.87,4.14-1.78,6.21-2.67,.08-1.07,.02-2.14,.04-3.21-.02-1.37,.04-2.73-.04-4.09-.85,.29-1.66,.67-2.49,1.01Z"/>
      <path class="cls-1" d="M198.16,124.38c.5-.11,1.02-.15,1.53-.07,.31,.03,.56,.34,.54,.65-.03,.2-.12,.38-.22,.55-.36,.63-.79,1.23-1.13,1.87-.14,.24-.19,.56-.01,.8,.23,.37,.84,.39,1.08,.01,.52-.73,.89-1.56,1.43-2.29,.22-.32,.76-.3,.98,.01,.75,.96,.95,2.27,.65,3.44-.36,1.39-1.52,2.55-2.93,2.88,.67,.16,1.34,.37,1.94,.74,.7,.43,1.41,.82,2.08,1.29,.45,.29,.69,.86,.58,1.38-.1,.45-.39,.83-.62,1.22-.28,.43-.51,.91-.85,1.31-.36,.41-.97,.55-1.48,.36-.38-.15-.71-.39-1.06-.6-.63-.4-1.31-.75-1.88-1.23-.48-.41-.84-.94-1.21-1.44-.51,.8-.99,1.61-1.47,2.43-.21,.34-.43,.68-.75,.93-.7,.54-1.72,.61-2.49,.17-.69-.38-1.16-1.14-1.16-1.93-.03-.49,.15-.95,.41-1.36,.62-1.01,1.23-2.03,1.83-3.05-.37-.24-.71-.53-1.12-.71-.4-.08-.81,.1-1.21,0-.3-.16-.52-.44-.76-.68-.36-.4-.75-.76-1.11-1.16-.17-.19-.36-.45-.25-.71,.16-.43,.42-.8,.66-1.18,.15-.23,.34-.54,.67-.49,.61,.07,1.19,.33,1.79,.49,.37,.13,.79,.19,1.11,.44,.2,.31,.25,.69,.44,1,.3,.32,.72,.49,1.1,.69-.03-.83-.31-1.65-.15-2.48,.23-1.57,1.5-2.91,3.04-3.27m-1.71,3.28c-.23,.9,.24,1.79,.05,2.69-.11,.55-.37,1.05-.66,1.53-.81,1.32-1.59,2.65-2.41,3.96-.2,.34-.45,.7-.4,1.12,.06,.52,.62,.92,1.13,.81,.42-.07,.65-.47,.86-.8,.78-1.34,1.61-2.64,2.39-3.97,.34-.59,.75-1.18,1.32-1.57,.54-.37,1.21-.43,1.78-.75,.61-.34,1.04-.95,1.25-1.61,.14-.44,.09-.91,.05-1.36-.25,.41-.47,.85-.75,1.25-.47,.68-1.4,1.04-2.19,.76-.86-.23-1.44-1.1-1.45-1.97,.06-.79,.61-1.4,.97-2.07-.92,.31-1.7,1.05-1.93,2m-5.47,1.31c.05,.22,.12,.45,.28,.61,.26,.28,.52,.58,.85,.8,.31,.04,.63-.04,.94-.06-.14-.3-.27-.61-.4-.92-.55-.17-1.1-.35-1.67-.43m7.51,5.05c.34,.78,.86,1.52,1.59,1.98,.7,.45,1.42,.88,2.15,1.3,.4-.63,.79-1.28,1.2-1.91-.77-.5-1.55-.99-2.36-1.44-.69-.38-1.5-.49-2.28-.41-.21,.01-.43,.28-.3,.48Z"/>
      <path class="cls-1" d="M185.96,135.24c-.27-.3-.19-.89,.22-1.02,.37-.09,.76,.02,1.13,.06,.5,.09,1.03,.11,1.51,.28,.28,.11,.38,.44,.32,.72-.12,.65-.27,1.29-.47,1.92-.13,.52-.95,.58-1.16,.09-.06-.24-.06-.49-.08-.74-.37,.19-.74,.37-1.12,.56-5.18,2.54-11.5,2.57-16.71,.09-.21-.11-.43-.26-.47-.51-.09-.36,.2-.78,.58-.77,.27,.03,.53,.15,.78,.26,4.37,1.97,9.54,2.09,14,.32,.73-.28,1.44-.64,2.14-1-.22-.08-.46-.12-.66-.26Z"/>
    </g>
  </g>
</svg>