<?xml version="1.0" encoding="UTF-8"?>
<svg id="Camada_2" data-name="Camada 2" xmlns="http://www.w3.org/2000/svg" viewBox="0 0 218.32 153.94">
  <defs>
    <style>
      .cls-1 {
        fill: #6fb630;
      }

      .cls-2 {
        fill: #347530;
      }

      .cls-3 {
        fill: #1f1f1f;
      }
    </style>
  </defs>
  <g id="Camada_1-2" data-name="Camada 1">
    <path class="cls-2" d="M144.94,15.5c4.09,3.38,9.23,5.24,14.54,5.24h42.13c9.07,0,16.44,7.23,16.69,16.25V14.69C218.3,6.61,211.74,.05,203.66,.05H123.71c-.18,0-.36,.03-.53,.07,4.51,.44,8.81,2.21,12.32,5.12l9.43,10.26Z"/>
    <path class="cls-3" d="M218.3,36.99c-.25-9.01-7.62-16.25-16.69-16.25h-42.13c-5.31,0-10.45-1.86-14.54-5.24l-9.43-10.26c-3.52-2.91-7.81-4.68-12.32-5.12-.74-.07-1.48-.12-2.22-.12H16.72C7.49,0,0,7.48,0,16.72l.02,120.51c0,9.23,7.49,16.71,16.71,16.71H201.61c9.23,0,16.71-7.49,16.71-16.72V37.45c0-.16-.02-.31-.02-.47Z"/>
    <circle class="cls-3" cx="164.88" cy="10.41" r="5.05"/>
    <circle class="cls-3" cx="179.18" cy="10.41" r="5.05"/>
    <circle class="cls-3" cx="193.48" cy="10.41" r="5.05"/>
    <g>
      <path class="cls-1" d="M174.79,97.36c1.32-.75,2.71-1.58,4.28-1.58,1.99-.06,3.71,1.11,5.35,2.09,2.43,1.67,4.95,3.69,5.91,6.59,.63,1.83-.5,3.66-2.03,4.61-.17,2.09,0,4.28-.91,6.23-.78,2.06-2.47,3.56-4.21,4.82,.72,1,1.65,1.9,2.82,2.35,1.5,.54,3.11,.78,4.55,1.51,2.4,1.18,4.57,3.16,5.4,5.77,.71,2.03,.45,4.22,.44,6.33-.86,.1-1.72,.2-2.59,.18-8.63-.02-17.27,0-25.9-.01-2.01-.01-4.03,.1-6.03-.16,.11-2.61-.23-5.45,1.16-7.8,1.23-2.21,3.36-3.8,5.69-4.71,1.16-.46,2.4-.66,3.57-1.09,1.21-.44,2.15-1.39,2.97-2.35-1.61-1.13-3.19-2.43-4.03-4.25-1.14-2.06-1.02-4.49-1.05-6.77-.77-.61-1.71-1.16-2.02-2.15-.37-1.35-.25-2.88,.54-4.06,1.49-2.35,3.72-4.13,6.07-5.56Zm3.8-.08c-2.04,.65-3.87,1.82-5.53,3.13-1.46,1.19-2.86,2.6-3.55,4.39-.33,.84,.16,1.67,.41,2.46,.22-.44,.46-.87,.72-1.29,5.44-2.29,11.83-2.31,17.24,.08,.28,.36,.53,.73,.78,1.12,.12-.62,.25-1.24,.28-1.87-.12-1.09-.78-2.02-1.47-2.83-1.78-2.02-4-3.65-6.45-4.75-.76-.3-1.59-.71-2.42-.45Zm-7.01,9.91c.43,.49,.8,1.04,1.34,1.42,.65,.38,1.44,.29,2.16,.32,2.66-.02,5.32-.02,7.98,0,.82-.03,1.69,.04,2.45-.33,.51-.39,.83-.95,1.23-1.44-2.35-.77-4.78-1.4-7.27-1.41-2.7-.06-5.36,.58-7.9,1.44Zm.09,2.63c.05,1.57-.07,3.23,.62,4.69,1.06,2.77,3.79,4.85,6.78,4.97,3.29,0,6.35-2.44,7.23-5.58,.41-1.31,.39-2.7,.44-4.06-.92,.31-1.87,.57-2.86,.53-3.2-.02-6.4,0-9.6-.01-.9,.02-1.76-.24-2.6-.54Zm4.5,10.89c.73,1.09,1.92,1.68,3,2.35,1.09-.67,2.34-1.21,3.01-2.37-1.99,.37-4.02,.36-6.01,.02Zm4.24,3.4c.61,.61,1.21,1.21,1.83,1.81,.9-.72,1.8-1.44,2.69-2.18-.59-.44-1.19-.88-1.78-1.32-.9,.58-1.81,1.14-2.73,1.69Zm-6.93-.42c.85,.76,1.72,1.5,2.59,2.24,.63-.61,1.27-1.21,1.89-1.84-.92-.55-1.83-1.1-2.75-1.65-.58,.41-1.16,.83-1.73,1.25Zm-4.96,1.65c-2.04,.99-3.87,2.64-4.64,4.82-.58,1.44-.43,3.02-.46,4.54,4.05,.05,8.11,.01,12.16,.02,.7-2.41,1.25-4.86,1.85-7.29-.39,.08-1.16,.24-1.54,.32-1.37-1.08-2.62-2.32-4.08-3.27-1.16-.14-2.27,.37-3.29,.86Zm13.76,2.49c-.41-.17-.81-.34-1.21-.51,.23,2.52,1.21,4.88,1.65,7.37,4.07,.07,8.13,.02,12.2,.03,0-1.85,.1-3.82-.82-5.5-1.43-2.77-4.45-4.33-7.4-4.92-1.46,1.19-2.91,2.4-4.42,3.53Zm-4.25-1.65c.39,.39,.77,.78,1.16,1.18,.36-.35,.71-.69,1.07-1.03-.21-.55-.6-.92-1.13-1.16-.37,.33-.74,.67-1.1,1Zm.54,3.06c-.51,1.82-.94,3.65-1.37,5.48,1.35,0,2.7,0,4.06-.03-.51-1.79-1.04-3.58-1.38-5.42-.43-.02-.87-.02-1.31-.04Z"/>
      <path class="cls-1" d="M178.06,99.06c.81-.55,1.92-.37,2.64,.25,.83,.59,.78,1.79,.55,2.68-.68,1.6-3.41,1.67-4.06,0-.61-1.01-.12-2.37,.86-2.94Zm.55,1.35c-.04,.21-.12,.63-.16,.84,.21,.22,.43,.41,.67,.59,.16-.08,.46-.23,.61-.3l.3-.62c-.18-.24-.37-.46-.58-.67-.21,.04-.64,.12-.85,.16Z"/>
    </g>
  </g>
</svg>