<?xml version="1.0" encoding="UTF-8"?>
<svg id="Camada_2" data-name="Camada 2" xmlns="http://www.w3.org/2000/svg" viewBox="0 0 213.84 213.84">
  <defs>
    <style>
      .cls-1 {
        fill: none;
      }

      .cls-2 {
        fill: #6fb631;
      }
    </style>
  </defs>
  <g id="Camada_6" data-name="Camada 6">
    <g>
      <path class="cls-1" d="M106.92,15C56.23,15,15,56.23,15,106.92s41.23,91.92,91.92,91.92,91.92-41.24,91.92-91.92S157.6,15,106.92,15Zm44,72.06l-44.16,53.9c-1.32,1.61-3.25,2.6-5.33,2.73-.16,0-.32,.01-.47,.01-1.91,0-3.76-.73-5.16-2.05l-24.26-22.97c-3.01-2.85-3.14-7.59-.29-10.6,2.85-3.01,7.59-3.14,10.6-.29l18.41,17.43,39.05-47.67c2.62-3.2,7.35-3.67,10.55-1.05,3.2,2.62,3.67,7.35,1.05,10.55Z"/>
      <path class="cls-2" d="M106.92,0C47.96,0,0,47.96,0,106.92s47.96,106.92,106.92,106.92,106.92-47.96,106.92-106.92S165.87,0,106.92,0Zm0,198.84c-50.68,0-91.92-41.24-91.92-91.92S56.23,15,106.92,15s91.92,41.23,91.92,91.92-41.23,91.92-91.92,91.92Z"/>
      <path class="cls-2" d="M149.87,76.5c-3.2-2.62-7.93-2.16-10.55,1.05l-39.05,47.67-18.41-17.43c-3.01-2.85-7.75-2.72-10.6,.29-2.85,3.01-2.72,7.75,.29,10.6l24.26,22.97c1.4,1.32,3.24,2.05,5.16,2.05,.16,0,.32,0,.47-.01,2.08-.13,4.01-1.12,5.33-2.73l44.16-53.9c2.62-3.2,2.16-7.93-1.05-10.55Z"/>
    </g>
  </g>
</svg>