<?xml version="1.0" encoding="UTF-8"?>
<svg id="Camada_2" data-name="Camada 2" xmlns="http://www.w3.org/2000/svg" viewBox="0 0 45.6 44.36">
  <defs>
    <style>
      .cls-1 {
        fill: #6fb630;
      }
    </style>
  </defs>
  <g id="Camada_1-2" data-name="Camada 1">
    <g id="_020202ff" data-name="#020202ff">
      <path class="cls-1" d="M20.97,.27c2.55-.78,5.52,.21,7.1,2.35,1.25,1.63,1.68,3.87,1.08,5.84-.62,2.23-2.52,4.03-4.77,4.57-1.74,.43-3.65,.12-5.14-.86-2.13-1.33-3.35-3.96-2.98-6.45,.31-2.54,2.24-4.78,4.71-5.46m.78,.77c-1.93,.36-3.62,1.79-4.27,3.65-.82,2.16-.11,4.78,1.67,6.25,1.58,1.37,3.95,1.73,5.87,.89,1.78-.73,3.12-2.43,3.4-4.34,.36-2.11-.61-4.38-2.4-5.56-1.23-.86-2.79-1.18-4.26-.9Z"/>
      <path class="cls-1" d="M22.34,2.21c.14-.42,.6-.38,.91-.17,.05,1.37,0,2.75,.03,4.12,.82,0,1.65-.01,2.47,0,.32-.04,.42,.32,.48,.55-.08,.09-.24,.28-.32,.37-1.09-.03-2.18,.04-3.27-.02-.32-.1-.31-.47-.3-.74,.01-1.37-.02-2.74,.01-4.11Z"/>
      <path class="cls-1" d="M5.4,6.73c.4-.25,.91-.08,1.35-.13,.36,.05,.82-.12,1.09,.19,.2,.39,.29,.83,.43,1.24,.27,.11,.53,.22,.79,.34,.45-.23,.89-.48,1.37-.64,.58,.52,1.14,1.06,1.64,1.66-.19,.46-.42,.9-.64,1.34,.12,.27,.24,.54,.35,.81,.46,.17,1.01,.22,1.38,.57,.08,.71,.05,1.44,.01,2.16-.35,.41-.95,.39-1.41,.61-.1,.27-.22,.53-.33,.79,.22,.44,.44,.87,.64,1.32-.49,.62-1.07,1.17-1.66,1.69-.46-.18-.91-.41-1.34-.64-.26,.12-.53,.23-.8,.33-.22,.46-.2,1.09-.64,1.42-.68,.03-1.36,.03-2.04,0-.5-.25-.44-.96-.68-1.41-.26-.11-.51-.22-.76-.34-.5,.15-.95,.66-1.49,.55-.52-.45-1.01-.95-1.47-1.46-.08-.53,.38-.97,.56-1.45-.12-.28-.24-.56-.36-.83-.45-.19-1.09-.16-1.39-.6-.03-.7-.05-1.41,.01-2.11,.32-.4,.92-.4,1.38-.6,.12-.26,.24-.53,.36-.79-.22-.45-.46-.89-.64-1.35,.47-.57,.99-1.1,1.55-1.59,.53-.1,.98,.38,1.47,.55,.26-.12,.52-.23,.78-.34,.15-.43,.26-.88,.46-1.3m.69,.8c-.14,.44-.26,.88-.48,1.28-.49,.13-.94,.36-1.4,.55-.45-.04-.83-.37-1.25-.55-.25,.25-.5,.5-.74,.75,.22,.39,.42,.79,.58,1.21-.26,.45-.41,.95-.62,1.43-.36,.26-.84,.32-1.25,.48,0,.34,0,.69,0,1.03,.43,.14,.86,.28,1.27,.47,.15,.5,.35,.98,.6,1.43-.14,.43-.36,.83-.58,1.23,.25,.25,.5,.5,.74,.75,.41-.18,.79-.52,1.25-.54,.46,.2,.92,.42,1.41,.55,.19,.42,.32,.85,.47,1.29,.35-.02,.69-.02,1.04-.03,.15-.41,.21-.87,.47-1.23,.49-.21,.99-.39,1.47-.62,.4,.17,.79,.38,1.17,.58,.25-.25,.5-.5,.74-.76-.19-.4-.5-.77-.54-1.22,.2-.48,.42-.95,.59-1.45,.41-.16,.82-.3,1.24-.43,0-.35,0-.7,0-1.05-.4-.14-.83-.21-1.2-.43-.27-.47-.39-1.01-.67-1.48,.16-.41,.37-.8,.58-1.2-.25-.25-.5-.5-.75-.76-.38,.21-.77,.41-1.17,.59-.49-.24-1-.44-1.51-.64-.17-.4-.3-.82-.45-1.24-.34,0-.69,0-1.03,0Z"/>
      <path class="cls-1" d="M36.42,6.62c1.91-.05,3.82,0,5.73-.02,.4,0,.88-.05,1.17,.29,.68,.68,1.37,1.36,2.04,2.04,.25,.22,.26,.56,.25,.87,0,3.04,0,6.07,0,9.11,.02,.49-.44,.91-.92,.89-2.65,0-5.31-.01-7.96-.01-.52,.05-1.08-.36-1.07-.91-.02-3.74,0-7.48,0-11.22-.05-.47,.29-.97,.77-1.04m.17,.91c-.01,3.78-.01,7.56,0,11.33,2.7-.02,5.39,.01,8.09,0,0-3.01,0-6.01,0-9.02-.58,0-1.17,.03-1.75-.02-.36-.1-.73-.38-.75-.79-.04-.5-.02-1-.02-1.5-1.86-.01-3.72,0-5.59,0m6.5,.47c0,.3,0,.6,0,.9,.31,0,.62,0,.93,.02-.31-.31-.62-.61-.93-.91Z"/>
      <path class="cls-1" d="M5.99,10.4c1.45-.36,3.06,.63,3.4,2.08,.22,.8,.05,1.68-.42,2.36-.6,.89-1.73,1.37-2.79,1.2-1.34-.18-2.44-1.42-2.45-2.77-.05-1.33,.94-2.62,2.25-2.88m0,.96c-.85,.3-1.45,1.22-1.3,2.12,.12,.97,1.07,1.74,2.05,1.65,1.18-.04,2.1-1.33,1.73-2.45-.26-1.04-1.47-1.68-2.48-1.32Z"/>
      <path class="cls-1" d="M37.94,10.97c.15-.26,.36-.57,.72-.48,1.42,0,2.84-.02,4.26,.01,.5,.16,.35,1.02-.2,.92-1.48-.01-2.96,.04-4.44-.03-.08-.11-.25-.32-.33-.43Z"/>
      <path class="cls-1" d="M38.32,12.76c1.47-.05,2.94,0,4.41-.02,.37-.06,.68,.42,.43,.71-.15,.29-.55,.2-.82,.23-1.29-.01-2.58,.02-3.87-.01-.51,.01-.62-.76-.15-.91Z"/>
      <path class="cls-1" d="M20.23,17.28c.81-.77,1.56-1.61,2.39-2.35,.09,0,.26,0,.35,0,.68,.58,1.28,1.26,1.92,1.88,.4,.42,.89,.78,1.13,1.32-.17,.2-.38,.54-.71,.38-.72-.62-1.36-1.34-2.04-2,0,1.76-.01,3.51,0,5.27-.12,.09-.36,.28-.48,.38-.12-.09-.36-.28-.48-.38,.02-1.75,0-3.5,0-5.26-.77,.68-1.39,1.54-2.25,2.1-.18-.15-.34-.32-.5-.5,.15-.32,.38-.6,.65-.84Z"/>
      <path class="cls-1" d="M37.96,15.43c.07-.11,.22-.33,.3-.44,1.49,0,2.98-.01,4.47,0,.56-.06,.71,.85,.13,.92-1.46,.02-2.92,.01-4.38,0-.29,.03-.39-.3-.52-.49Z"/>
      <path class="cls-1" d="M9.06,21c0-.24,.1-.61,.41-.59,1.36-.03,2.71,0,4.07,0,.08,.11,.24,.33,.31,.44-.14,.17-.2,.53-.5,.48-.9,.02-1.81,0-2.71,0,1.25,1.25,2.53,2.47,3.74,3.76,.14,.39-.22,.6-.53,.7-1.33-1.21-2.56-2.55-3.86-3.8,0,.77,0,1.54,0,2.3-.04,.23,.08,.58-.19,.72-.26,.27-.73,.02-.75-.33-.03-1.23-.01-2.46,0-3.69Z"/>
      <path class="cls-1" d="M31.77,20.83c.07-.1,.22-.31,.3-.42,1.36-.02,2.72-.03,4.07,0,.31-.03,.41,.35,.41,.59,.01,1.17,0,2.33,0,3.5,.02,.26-.11,.61-.42,.63-.27,.02-.53-.18-.52-.45-.02-.9,0-1.79,0-2.69-1.1,1.1-2.21,2.2-3.3,3.31-.19,.16-.34,.39-.59,.46-.32,.03-.44-.27-.59-.49,.18-.26,.38-.51,.61-.73,1.08-1.06,2.13-2.14,3.21-3.19-.83-.02-1.66,0-2.48,0-.37,.09-.61-.18-.71-.51Z"/>
      <path class="cls-1" d="M19.7,25.2c1.1-.84,2.55-1.2,3.91-.98,2.03,.29,3.78,1.93,4.2,3.94,.44,1.83-.26,3.84-1.7,5.05,3.34,1.22,5.88,4.52,5.95,8.11,0,.9,.07,1.81-.1,2.7-.03,.22-.27,.33-.47,.32-5.67,0-11.34,0-17.01,0-.27-.01-.57,.05-.79-.16-.15-.42-.15-.88-.16-1.32,0-1.1-.06-2.22,.23-3.3,.7-2.9,2.94-5.34,5.72-6.37-1.07-.92-1.76-2.26-1.81-3.68-.09-1.66,.69-3.33,2.02-4.33m2.06,.02c-1.83,.45-3.2,2.24-3.14,4.12-.01,1.86,1.39,3.6,3.2,4.01,1.38,.35,2.93-.06,3.93-1.09,.79-.76,1.26-1.84,1.26-2.93,.03-1.44-.74-2.86-1.97-3.61-.96-.62-2.17-.78-3.27-.51m-6.93,14.09c-.45,1.32-.38,2.73-.35,4.1,5.55,.01,11.1,0,16.65,0,.03-1.33,.1-2.7-.31-3.99-.79-2.66-3.03-4.78-5.67-5.56-1.45,.74-3.24,.75-4.68,0-2.61,.78-4.83,2.85-5.64,5.46Z"/>
    </g>
  </g>
</svg>