<?xml version="1.0" encoding="UTF-8"?>
<svg id="Camada_2" data-name="Camada 2" xmlns="http://www.w3.org/2000/svg" viewBox="0 0 914.42 1035.77">
  <defs>
    <style>
      .cls-1 {
        fill: #444;
      }

      .cls-2 {
        fill: none;
      }
    </style>
  </defs>
  <g id="Camada_6" data-name="Camada 6">
    <g>
      <path class="cls-2" d="M881.75,3H32.67C16.31,3,3,16.09,3,32.18v1000.59h29.42c13.67-41.2,52.55-71,98.27-71s84.6,29.8,98.27,71H911.42V32.18c0-16.09-13.31-29.18-29.67-29.18Z"/>
      <path class="cls-1" d="M881.75,0H32.67C14.66,0,0,14.44,0,32.18v1003.59H34.15s.44,0,.44,0c12.65-41.07,50.94-71,96.1-71s83.46,29.93,96.1,71h.32s687.31,0,687.31,0V32.18c0-17.75-14.66-32.18-32.67-32.18Zm29.67,1032.77H228.97c-13.67-41.2-52.55-71-98.27-71s-84.6,29.8-98.27,71H3V32.18C3,16.09,16.31,3,32.67,3H881.75c16.36,0,29.67,13.09,29.67,29.18v1000.59Z"/>
    </g>
  </g>
</svg>