<?xml version="1.0" encoding="UTF-8"?>
<svg id="Camada_2" data-name="Camada 2" xmlns="http://www.w3.org/2000/svg" viewBox="0 0 213.84 213.84">
  <defs>
    <style>
      .cls-1 {
        fill: #e94542;
      }

      .cls-2 {
        fill: none;
      }
    </style>
  </defs>
  <g id="Camada_6" data-name="Camada 6">
    <g>
      <path class="cls-2" d="M106.92,15C56.23,15,15,56.24,15,106.92s41.23,91.92,91.92,91.92,91.92-41.23,91.92-91.92S157.6,15,106.92,15Zm35.98,117.29c2.93,2.93,2.93,7.68,0,10.61-1.46,1.46-3.38,2.2-5.3,2.2s-3.84-.73-5.3-2.2l-25.37-25.37-25.37,25.37c-1.46,1.46-3.38,2.2-5.3,2.2s-3.84-.73-5.3-2.2c-2.93-2.93-2.93-7.68,0-10.61l25.37-25.37-25.37-25.37c-2.93-2.93-2.93-7.68,0-10.61,2.93-2.93,7.68-2.93,10.61,0l25.37,25.37,25.37-25.37c2.93-2.93,7.68-2.93,10.61,0,2.93,2.93,2.93,7.68,0,10.61l-25.37,25.37,25.37,25.37Z"/>
      <path class="cls-1" d="M106.92,0C47.96,0,0,47.96,0,106.92s47.96,106.92,106.92,106.92,106.92-47.96,106.92-106.92S165.87,0,106.92,0Zm0,198.84c-50.68,0-91.92-41.23-91.92-91.92S56.23,15,106.92,15s91.92,41.24,91.92,91.92-41.23,91.92-91.92,91.92Z"/>
      <path class="cls-1" d="M142.9,70.94c-2.93-2.93-7.68-2.93-10.61,0l-25.37,25.37-25.37-25.37c-2.93-2.93-7.68-2.93-10.61,0-2.93,2.93-2.93,7.68,0,10.61l25.37,25.37-25.37,25.37c-2.93,2.93-2.93,7.68,0,10.61,1.46,1.46,3.38,2.2,5.3,2.2s3.84-.73,5.3-2.2l25.37-25.37,25.37,25.37c1.46,1.46,3.38,2.2,5.3,2.2s3.84-.73,5.3-2.2c2.93-2.93,2.93-7.68,0-10.61l-25.37-25.37,25.37-25.37c2.93-2.93,2.93-7.68,0-10.61Z"/>
    </g>
  </g>
</svg>