<?xml version="1.0" encoding="UTF-8"?>
<svg id="Camada_2" data-name="Camada 2" xmlns="http://www.w3.org/2000/svg" viewBox="0 0 42.05 46.51">
  <defs>
    <style>
      .cls-1 {
        fill: #6fb630;
      }
    </style>
  </defs>
  <g id="Camada_1-2" data-name="Camada 1">
    <g>
      <path class="cls-1" d="M13.12,.78C14.12,.05,15.46-.19,16.65,.16c.98,.27,1.84,.92,2.37,1.78,.54,.85,.72,1.89,.57,2.87,1.03,.01,2.07-.03,3.1,.02-.03,1.2,0,2.4-.02,3.6-.02,.72-.66,1.35-1.39,1.34-3.84,0-7.69,0-11.53,0-.72,0-1.34-.63-1.36-1.35,0-1.2,0-2.41,0-3.62,1.03,0,2.05,0,3.08,0-.26-1.52,.39-3.13,1.65-4.03Zm2.03,1.42c-.7,.13-1.29,.68-1.48,1.36-.29,.9,.2,1.96,1.07,2.33,.72,.34,1.65,.16,2.19-.42,.53-.52,.7-1.37,.42-2.05-.32-.86-1.3-1.42-2.2-1.21Z"/>
      <path class="cls-1" d="M0,6.95c-.02-.78,.66-1.47,1.43-1.49,1.63,0,3.26,0,4.89,0,.01,1,0,2.01,0,3.01-1.11-.01-2.21,0-3.32,0-.01,10.7,0,21.39,0,32.09,5.41,0,10.81,0,16.22,0,0,1,0,2,0,3-5.9,0-11.8,0-17.7,0-.8,.03-1.53-.69-1.52-1.49C0,30.36,0,18.66,0,6.95Z"/>
      <path class="cls-1" d="M24.73,5.45c1.45,0,2.9,0,4.35,0,.35,0,.71-.04,1.04,.11,.57,.2,.95,.79,.95,1.39,0,6.35,0,12.7,0,19.05-1-.12-2-.19-3-.18,0-5.79-.01-11.58,0-17.36-1.11-.01-2.22,0-3.33,0-.01-1,0-2.01,0-3.01Z"/>
      <path class="cls-1" d="M20.4,11.86c.59,.02,1.21,.16,1.67,.56-.13,.28-.37,.5-.56,.74-1.18,1.42-2.36,2.85-3.54,4.28-2.38,2.89-4.78,5.75-7.14,8.65-.63,.09-1.19-.28-1.58-.74,.21-.25,.41-.51,.62-.76,3.51-4.24,7.02-8.48,10.53-12.72Z"/>
      <path class="cls-1" d="M9.86,12.6c.8-.5,1.79-.65,2.71-.51,.85,.13,1.62,.67,2.07,1.4,.57,.97,.58,2.21,.12,3.23-.12,.26-.25,.57-.55,.67,.02,.05,.04,.1,.07,.15-.49,.4-1.03,.81-1.67,.93-.83,.16-1.73,.13-2.5-.25-.72-.36-1.3-1.01-1.54-1.78-.44-1.37,.06-3.04,1.28-3.84Zm1.24,1.41c-.35,.7-.32,1.54-.08,2.27,.12,.39,.42,.73,.85,.76,.44-.12,.7-.56,.76-.98,.1-.62,.09-1.28-.15-1.87-.13-.3-.36-.62-.71-.64-.3-.02-.54,.21-.66,.46Z"/>
      <path class="cls-1" d="M18.39,19.69c.82-.2,1.72-.22,2.5,.13,.6,.29,1.13,.76,1.41,1.37,.46,.94,.44,2.07,.04,3.03-.41,1.02-1.44,1.75-2.53,1.86-.65,.06-1.32,.04-1.93-.22-.66-.26-1.22-.78-1.53-1.42-.52-1.03-.45-2.32,.12-3.31,.41-.72,1.13-1.23,1.91-1.45Zm.46,1.65c-.48,.57-.46,1.39-.36,2.08,.1,.42,.25,.93,.7,1.09,.46,.19,.96-.34,.86-.77l.1,.21c.16-.91,.24-2.02-.46-2.73-.27-.15-.64-.15-.83,.11Z"/>
      <path class="cls-1" d="M27.58,27.94c1.94-.06,3.93,.13,5.75,.86,.73,.34,1.55,.75,1.84,1.55,.23,.69-.28,1.35-.83,1.72-1.32,.88-2.91,1.18-4.46,1.35-2.18,.18-4.43,.05-6.49-.73-.66-.26-1.32-.6-1.77-1.17-.31-.37-.4-.92-.18-1.36,.26-.5,.73-.84,1.22-1.1,1.51-.79,3.24-1.04,4.93-1.13Z"/>
      <path class="cls-1" d="M6.33,30.36c3.25,0,6.5,0,9.76,0,.47,.01,.95-.03,1.41,.03-.01,.84,0,1.67,0,2.51-3.72-.02-7.45,0-11.17-.01,.01-.84,0-1.68,0-2.53Z"/>
      <path class="cls-1" d="M21.31,34.87c0-.91,0-1.82,0-2.72,.14,.86,.96,1.36,1.68,1.7,2.2,.96,4.67,1.08,7.03,.89-.27,.29-.53,.6-.76,.93-.4,.6-.73,1.25-.95,1.94-1.98-.02-4.05-.26-5.81-1.22-.55-.34-1.17-.81-1.19-1.52Z"/>
      <path class="cls-1" d="M32.57,33.92c1.65-.81,3.65-.86,5.35-.17,2.37,.93,4.06,3.33,4.12,5.88,.07,1.62-.49,3.27-1.54,4.5-1.12,1.35-2.81,2.22-4.56,2.35-1.95,.17-3.93-.6-5.28-2.01-1-1.05-1.66-2.43-1.81-3.88-.18-1.62,.26-3.3,1.24-4.61,.63-.88,1.5-1.6,2.48-2.06Zm2.47,2.52c-.73,.04-1.45,.45-1.82,1.09-.24,.51-.31,1.11-.13,1.65,.17,.49,.63,.81,1.1,.99,.6,.23,1.23,.37,1.84,.58,.23,.09,.47,.21,.62,.42,.14,.25,.12,.61-.11,.8-.27,.22-.63,.24-.96,.24-.83-.02-1.62-.35-2.29-.83-.19,.37-.38,.75-.57,1.12,.66,.54,1.53,.77,2.36,.9,0,.24-.02,.48-.03,.72,.42,.08,.85,.04,1.28,.03-.01-.26-.01-.53,0-.79,.59-.08,1.19-.37,1.53-.88,.3-.45,.36-1.01,.27-1.53-.08-.49-.44-.91-.87-1.14-.68-.36-1.46-.48-2.18-.72-.24-.07-.46-.22-.64-.4-.05-.2-.12-.41-.03-.61,.08-.29,.38-.44,.65-.48,.8-.13,1.63,.16,2.27,.63,.08-.16,.17-.33,.26-.49,.1-.21,.24-.4,.3-.62-.5-.28-1.01-.54-1.57-.66,0-.28,0-.57,0-.85-.41,0-.82,.01-1.22,0-.05,.27-.02,.56-.05,.83Z"/>
      <path class="cls-1" d="M6.33,35c3.72,0,7.45,0,11.17,0-.01,.84-.01,1.68,0,2.52-3.72,.02-7.45,0-11.17,0,.01-.84,0-1.69,0-2.53Z"/>
      <path class="cls-1" d="M21.32,39.2c-.02-.96-.02-1.92,0-2.87,.06,.83,.83,1.32,1.5,1.67,1.61,.77,3.42,1,5.18,1.05-.09,.93-.03,1.88,.2,2.79-1.83-.02-3.72-.25-5.39-1.05-.64-.34-1.37-.81-1.5-1.59Z"/>
      <path class="cls-1" d="M21.31,43.37c0-.92-.02-1.84,.02-2.75,.13,.87,.96,1.35,1.68,1.7,1.8,.78,3.8,1,5.74,.94,.54,.99,1.26,1.89,2.17,2.58-1,.21-2.03,.23-3.04,.23-1.72-.06-3.47-.29-5.04-1.04-.66-.35-1.43-.83-1.52-1.65Z"/>
    </g>
  </g>
</svg>