<?xml version="1.0" encoding="UTF-8"?>
<svg id="Camada_2" data-name="Camada 2" xmlns="http://www.w3.org/2000/svg" xmlns:xlink="http://www.w3.org/1999/xlink" viewBox="0 0 212.13 212.13">
  <defs>
    <style>
      .cls-1 {
        fill: url(#Gradiente_sem_nome_37);
      }

      .cls-2 {
        fill: #3a3a3a;
      }

      .cls-3 {
        fill: #1f1f1f;
      }
    </style>
    <linearGradient id="Gradiente_sem_nome_37" data-name="Gradiente sem nome 37" x1="106.06" y1="8.52" x2="106.06" y2="204.39" gradientUnits="userSpaceOnUse">
      <stop offset=".02" stop-color="#6fb630"/>
      <stop offset=".19" stop-color="#599d30"/>
      <stop offset=".43" stop-color="#3e8030"/>
      <stop offset=".56" stop-color="#347530"/>
    </linearGradient>
  </defs>
  <g id="Camada_5" data-name="Camada 5">
    <g>
      <path class="cls-3" d="M187.55,0H24.58C11.01,0,0,11.01,0,24.58V187.55c0,13.58,11.01,24.58,24.58,24.58H187.55c13.58,0,24.58-11.01,24.58-24.58V24.58c0-13.58-11.01-24.58-24.58-24.58ZM26.13,8.13H186c9.94,0,18,8.06,18,18v53.45c-.9-2.55-3.31-4.38-6.15-4.38h-28.3c-4.96,0-9.35-3.22-10.88-7.98l-4.47-13.94c-1.53-4.76-5.92-7.98-10.88-7.98H15.32c-3.35,0-6.19,2.2-7.19,5.24V26.13c0-9.94,8.06-18,18-18ZM15.16,138.19h0v-.25H197.03v.5H15.16v-.25h0Z"/>
      <path class="cls-3" d="M15.32,45.29h128c4.96,0,9.35,3.22,10.88,7.98l4.47,13.94c1.53,4.76,5.92,7.98,10.88,7.98h28.3c2.84,0,5.25,1.83,6.15,4.38V26.13c0-9.94-8.06-18-18-18H26.13c-9.94,0-18,8.06-18,18v24.4c1-3.04,3.84-5.24,7.19-5.24Zm144.91,13.25c0-7.28,5.9-13.19,13.19-13.19h14.78c7.28,0,13.19,5.9,13.19,13.19v.46c0,7.28-5.9,13.19-13.19,13.19h-14.78c-7.28,0-13.19-5.9-13.19-13.19v-.46Z"/>
      <path class="cls-1" d="M15.32,45.29h128c4.96,0,9.35,3.22,10.88,7.98l4.47,13.94c1.53,4.76,5.92,7.98,10.88,7.98h28.3c2.84,0,5.25,1.83,6.15,4.38V26.13c0-9.94-8.06-18-18-18H26.13c-9.94,0-18,8.06-18,18v24.4c1-3.04,3.84-5.24,7.19-5.24Zm144.91,13.25c0-7.28,5.9-13.19,13.19-13.19h14.78c7.28,0,13.19,5.9,13.19,13.19v.46c0,7.28-5.9,13.19-13.19,13.19h-14.78c-7.28,0-13.19-5.9-13.19-13.19v-.46Z"/>
      <rect class="cls-3" x="160.23" y="45.35" width="41.16" height="26.84" rx="13.19" ry="13.19"/>
      <polygon class="cls-2" points="197.03 138.44 197.03 137.94 15.16 137.94 15.16 138.19 15.16 138.44 197.03 138.44"/>
    </g>
  </g>
</svg>