<?xml version="1.0" encoding="UTF-8"?>
<svg id="Camada_2" data-name="Camada 2" xmlns="http://www.w3.org/2000/svg" viewBox="0 0 47.02 41.52">
  <defs>
    <style>
      .cls-1 {
        fill: #6fb630;
      }
    </style>
  </defs>
  <g id="Camada_3" data-name="Camada 3">
    <g id="_323031ff" data-name="#323031ff">
      <path class="cls-1" d="M9.34,7.07c.43-3.17,2.61-5.75,5.48-7.07-.01,3.41-2.42,5.99-5.48,7.07Z"/>
      <path class="cls-1" d="M31.51,.42c3.28,.63,5.62,3.42,5.88,6.72-2.95-1.16-5.33-3.53-5.88-6.72Z"/>
      <path class="cls-1" d="M5.32,12.15c-.76-3.38-.28-7.03,2.69-9.07,.47,3.31,.3,7.03-2.69,9.07Z"/>
      <path class="cls-1" d="M41.26,12.3c-2.58-2.41-3.67-5.98-2.35-9.31,2.42,2.54,3.25,5.94,2.35,9.31Z"/>
      <path class="cls-1" d="M8.61,9.07c2.06-2.73,5.79-3.3,8.86-2.07-2.51,1.87-5.78,2.71-8.86,2.07Z"/>
      <path class="cls-1" d="M29.28,6.53c3.17-.46,6.72-.17,8.62,2.69-3.08,.52-6.63-.07-8.62-2.69Z"/>
      <path class="cls-1" d="M23.1,8.86c1.21,2.4,2.23,4.89,3.31,7.35,2.71,.2,5.43,.36,8.14,.6-1.87,1.87-3.91,3.58-5.96,5.27,.72,2.47,1.41,4.96,1.78,7.52-2.36-1.18-4.41-3.05-6.98-3.77-2.63,.78-4.72,2.78-7.33,3.67,.59-2.51,1.35-4.97,2.12-7.43-2.04-1.68-4.06-3.37-5.95-5.23,2.65-.19,5.31-.32,7.96-.45,.98-2.51,1.9-5.04,2.9-7.53Z"/>
      <path class="cls-1" d="M2.6,9.08c1.96,2.48,1.96,5.81,1.26,8.76-2.85-2.04-2.28-5.83-1.26-8.76Z"/>
      <path class="cls-1" d="M43.93,9.09c1.52,3.13,1.15,6.71-.87,9.56-1.32-3.17-1.22-6.75,.87-9.56Z"/>
      <path class="cls-1" d="M4.66,16.24c1.08-2.93,3.41-5.34,6.53-5.99-.56,1.47-.96,3.17-2.25,4.2-1.32,.83-2.81,1.31-4.27,1.8Z"/>
      <path class="cls-1" d="M41.69,16.27c-2.96-.62-5.91-2.74-5.7-6.12,2.9,.87,5.35,3,5.7,6.12Z"/>
      <path class="cls-1" d="M3.98,24.21c-2.24-1.92-5.15-4.96-3.49-8.15,2.89,1.79,3.67,4.97,3.49,8.15Z"/>
      <path class="cls-1" d="M4.92,24.67c-.72-3.36,.76-6.41,3.41-8.4,.74,3.31-.82,6.46-3.41,8.4Z"/>
      <path class="cls-1" d="M38.41,16.12c2.69,1.91,3.7,4.97,3.34,8.17-1.08-1.03-2.13-2.11-3-3.32-.6-1.53-.31-3.24-.34-4.85Z"/>
      <path class="cls-1" d="M42.23,24.28c.27-3.28,1.5-6.92,4.79-8.25-.27,3.28-1.5,6.92-4.79,8.25Z"/>
      <path class="cls-1" d="M8.32,31.34c-1.03-2.72-1.62-6.11,.48-8.46,1.06,2.73,1.69,6.08-.48,8.46Z"/>
      <path class="cls-1" d="M37.9,31.07c-1.16-2.65-1.68-6.01,.58-8.24,.93,2.64,2,6.2-.58,8.24Z"/>
      <path class="cls-1" d="M.17,23.55c1.59,.64,3.32,1.12,4.64,2.25,1.03,1.26,1.54,2.84,2.2,4.3-3.25-.81-5.97-3.28-6.84-6.55Z"/>
      <path class="cls-1" d="M39.72,30.11c.54-3.59,3.62-5.85,7.03-6.51-1.19,3.17-3.74,5.6-7.03,6.51Z"/>
      <path class="cls-1" d="M10.74,28.69c3.1,1.18,4.52,4.11,5.3,7.11-2.92-1.24-5.63-3.55-5.3-7.11Z"/>
      <path class="cls-1" d="M36.01,28.61c.29,3.47-2.34,6.27-5.51,7.08,.79-3.02,2.83-5.51,5.51-7.08Z"/>
      <path class="cls-1" d="M3.01,30.92c3.67-.9,6.7,1.26,8.81,3.97-3.61,.68-6.62-1.34-8.81-3.97Z"/>
      <path class="cls-1" d="M35.04,34.95c1.64-3.18,5.16-4.54,8.64-4.08-2.06,2.79-5.1,4.47-8.64,4.08Z"/>
      <path class="cls-1" d="M16.14,32.84c3.39,.53,5.66,2.95,7.06,5.95-3.31-.42-6.04-2.79-7.06-5.95Z"/>
      <path class="cls-1" d="M23.73,38.63c1.12-2.99,3.56-5.51,6.87-5.77-1.17,2.95-3.49,5.65-6.87,5.77Z"/>
      <path class="cls-1" d="M8.17,37.25c2.75-2.22,6.68-1.43,9.16,.79-3.07,1.16-6.4,1.03-9.16-.79Z"/>
      <path class="cls-1" d="M29.43,37.93c2.71-2.21,6.74-2.74,9.61-.53-3.11,1.28-6.42,2-9.61,.53Z"/>
      <path class="cls-1" d="M14.14,41.17c2.09-2.75,5.76-2.64,8.81-1.95-2.14,2.54-5.81,2.59-8.81,1.95Z"/>
      <path class="cls-1" d="M23.46,39.27c3.21-.74,6.89-.92,9.18,1.87-3.2,.43-6.8,.67-9.18-1.87Z"/>
    </g>
  </g>
</svg>