<?xml version="1.0" encoding="UTF-8"?>
<svg id="Camada_2" data-name="Camada 2" xmlns="http://www.w3.org/2000/svg" viewBox="0 0 975.35 207.66">
  <defs>
    <style>
      .cls-1 {
        fill: #444;
      }

      .cls-2 {
        fill: none;
      }
    </style>
  </defs>
  <g id="Camada_6" data-name="Camada 6">
    <g>
      <path class="cls-2" d="M157.58,15c-36.93,0-66.98,30.05-66.98,66.98s30.05,66.98,66.98,66.98,66.98-30.05,66.98-66.98S194.52,15,157.58,15Z"/>
      <path class="cls-1" d="M239.5,84.4H975.35v-5.29H239.49C237.97,35.23,201.82,0,157.58,0S77.19,35.23,75.67,79.11H0v5.29H75.66c1.29,44.09,37.53,79.56,81.92,79.56,11.7,0,22.82-2.48,32.9-6.91l12.65,19.83c2.13,3.34,5.78,5.34,9.74,5.35l24.92,.04v22.81c0,1.43,1.16,2.58,2.58,2.58s2.58-1.16,2.58-2.58v-54.48c0-1.43-1.16-2.58-2.58-2.58s-2.58,1.16-2.58,2.58v24.67l-24.91-.04c-1.57,0-3.01-.79-3.85-2.12l-12.22-19.16c24.79-13.56,41.83-39.57,42.7-69.55Zm-81.92,64.56c-36.93,0-66.98-30.05-66.98-66.98S120.65,15,157.58,15s66.98,30.05,66.98,66.98-30.05,66.98-66.98,66.98Z"/>
    </g>
  </g>
</svg>