<?xml version="1.0" encoding="UTF-8"?>
<svg id="Camada_2" data-name="Camada 2" xmlns="http://www.w3.org/2000/svg" viewBox="0 0 213.84 213.84">
  <defs>
    <style>
      .cls-1 {
        fill: #1cabcd;
      }

      .cls-2 {
        fill: none;
      }
    </style>
  </defs>
  <g id="Camada_6" data-name="Camada 6">
    <g>
      <path class="cls-2" d="M106.92,15C56.23,15,15,56.24,15,106.92s41.23,91.92,91.92,91.92,91.92-41.23,91.92-91.92S157.6,15,106.92,15Zm41.38,115.21l-12.48,4.06c-3.43,1.12-7.21,1.66-11.05,1.66-6.64,0-13.45-1.62-18.86-4.7-4.93-2.81-12.44-3.58-17.84-1.82l-12.48,4.06c-3.94,1.28-8.17-.87-9.45-4.81-1.28-3.94,.87-8.17,4.81-9.45l12.48-4.06c9.35-3.04,21.37-1.82,29.91,3.04,4.94,2.81,12.44,3.58,17.84,1.82l12.48-4.06c3.93-1.28,8.17,.87,9.45,4.81,1.28,3.94-.87,8.17-4.81,9.45Zm0-32.47l-12.48,4.06c-3.43,1.12-7.21,1.66-11.05,1.66-6.64,0-13.45-1.62-18.86-4.7-4.93-2.81-12.44-3.58-17.84-1.82l-12.48,4.06c-3.94,1.28-8.17-.87-9.45-4.81-1.28-3.94,.87-8.17,4.81-9.45l12.48-4.06c9.35-3.04,21.37-1.82,29.91,3.04,4.94,2.81,12.44,3.58,17.84,1.82l12.48-4.06c3.93-1.28,8.17,.87,9.45,4.81,1.28,3.94-.87,8.17-4.81,9.45Z"/>
      <path class="cls-1" d="M106.92,0C47.96,0,0,47.96,0,106.92s47.96,106.92,106.92,106.92,106.92-47.96,106.92-106.92S165.88,0,106.92,0Zm0,198.84c-50.68,0-91.92-41.23-91.92-91.92S56.23,15,106.92,15s91.92,41.24,91.92,91.92-41.24,91.92-91.92,91.92Z"/>
      <path class="cls-1" d="M143.66,83.48l-12.48,4.06c-5.4,1.76-12.91,.99-17.84-1.82-8.54-4.87-20.56-6.09-29.91-3.04l-12.48,4.06c-3.94,1.28-6.09,5.52-4.81,9.45,1.28,3.94,5.52,6.09,9.45,4.81l12.48-4.06c5.4-1.76,12.91-.99,17.84,1.82,5.41,3.08,12.22,4.7,18.86,4.7,3.84,0,7.63-.54,11.05-1.66l12.48-4.06c3.94-1.28,6.09-5.52,4.81-9.45-1.29-3.94-5.52-6.09-9.45-4.81Z"/>
      <path class="cls-1" d="M143.66,115.95l-12.48,4.06c-5.4,1.76-12.91,1-17.84-1.82-8.54-4.87-20.56-6.09-29.91-3.04l-12.48,4.06c-3.94,1.28-6.09,5.52-4.81,9.45,1.28,3.94,5.52,6.09,9.45,4.81l12.48-4.06c5.4-1.76,12.91-.99,17.84,1.82,5.41,3.08,12.22,4.7,18.86,4.7,3.84,0,7.63-.54,11.05-1.66l12.48-4.06c3.94-1.28,6.09-5.52,4.81-9.45-1.29-3.94-5.52-6.09-9.45-4.81Z"/>
    </g>
  </g>
</svg>