<?xml version="1.0" encoding="UTF-8"?>
<svg id="Camada_2" data-name="Camada 2" xmlns="http://www.w3.org/2000/svg" viewBox="0 0 38.25 35.04">
  <defs>
    <style>
      .cls-1 {
        fill: #6fb630;
      }
    </style>
  </defs>
  <g id="Camada_3" data-name="Camada 3">
    <g id="_ff75a8ff" data-name="#ff75a8ff">
      <path class="cls-1" d="M9.6,.04c.18-.02,.36-.04,.55-.03,.37,0,.73-.02,1.1,.03,.28,.01,.56,.06,.84,.11,.32,.06,.64,.12,.96,.22,.48,.15,.96,.31,1.42,.53,.56,.24,1.07,.57,1.59,.89,.16,.11,.31,.23,.47,.35,.2,.15,.41,.29,.59,.46,.16,.15,.33,.29,.49,.45,.46,.45,.92,.92,1.31,1.43,.06,.09,.13,.18,.21,.24,.13-.11,.23-.26,.34-.38,.41-.54,.89-1.02,1.38-1.48,.19-.16,.37-.34,.57-.48,.2-.14,.38-.3,.58-.44,.39-.26,.77-.53,1.19-.74,.63-.34,1.3-.62,1.99-.83,.41-.1,.81-.22,1.23-.27C27.03,0,27.65,0,28.27,0c1.36,.05,2.7,.39,3.94,.95,.87,.42,1.69,.94,2.42,1.58,.22,.17,.43,.35,.61,.57,.12,.16,.29,.28,.42,.45,.62,.68,1.12,1.46,1.52,2.28,.13,.25,.25,.52,.35,.79,.19,.48,.33,.97,.45,1.47,.16,.63,.21,1.27,.27,1.91,.01,.26,0,.52,0,.79-.04,.5-.07,1-.14,1.49-.1,.78-.28,1.54-.5,2.29-.12,.36-.22,.74-.36,1.09-.1,.29-.22,.57-.33,.85-.08,.19-.18,.38-.25,.57-.16,.37-.35,.72-.52,1.08-.11,.22-.23,.42-.35,.63-.25,.48-.55,.94-.83,1.41-.23,.34-.44,.68-.67,1.01-.39,.58-.82,1.14-1.24,1.7-.38,.47-.75,.94-1.15,1.4-.1,.12-.19,.25-.3,.37-.44,.46-.83,.97-1.29,1.41-.35,.4-.75,.77-1.11,1.16-.43,.41-.85,.83-1.27,1.24-.16,.18-.36,.32-.53,.49-.2,.22-.45,.39-.65,.6-.67,.59-1.31,1.2-2.01,1.76-.29,.27-.61,.52-.91,.78-.21,.21-.47,.36-.69,.56-.25,.23-.54,.43-.8,.65-.29,.23-.59,.46-.88,.69-.18,.13-.34,.29-.53,.41-.39,.26-.82,.47-1.29,.54-.26,.05-.52,.05-.78,.04-.25,0-.5-.09-.74-.15-.57-.17-1.03-.56-1.49-.93-.21-.18-.45-.33-.66-.52-.45-.39-.93-.75-1.39-1.12-.78-.67-1.57-1.33-2.34-2.01-.3-.28-.62-.53-.9-.82-.17-.17-.35-.33-.53-.49-.17-.15-.31-.32-.48-.46-.25-.22-.48-.46-.72-.69-.23-.2-.43-.44-.65-.65-.18-.17-.34-.37-.53-.53-.38-.41-.78-.81-1.15-1.24-.61-.66-1.19-1.34-1.76-2.04-.17-.23-.36-.45-.54-.68-.24-.32-.47-.65-.72-.97-.21-.31-.43-.62-.64-.93-.07-.1-.17-.2-.18-.33,.08-.01,.16-.02,.24-.02,1.23,0,2.46,0,3.69,0,.43,0,.85-.22,1.11-.56,.17-.21,.25-.48,.32-.74,.07-.28,.13-.56,.22-.84,.06-.19,.08-.4,.15-.59,.06-.17,.07-.34,.11-.51,.1-.4,.2-.79,.3-1.19,.15-.53,.26-1.07,.41-1.6,.05-.21,.1-.42,.15-.62,.04-.15,.05-.32,.14-.45,.06,.09,.07,.19,.1,.29,.5,1.99,.99,3.98,1.49,5.96,.11,.51,.26,1,.37,1.51,.08,.31,.16,.62,.24,.93,.12,.54,.28,1.07,.39,1.61,.14,.52,.25,1.05,.39,1.57,.07,.28,.21,.55,.43,.74,.17,.14,.35,.27,.57,.33,.32,.09,.68,.08,.99-.05,.31-.14,.58-.37,.73-.68,.13-.29,.24-.6,.35-.9,.23-.57,.43-1.14,.64-1.71,.27-.68,.5-1.37,.77-2.05,.21-.57,.41-1.14,.64-1.7,.08-.24,.16-.49,.27-.72,.16-.43,.3-.86,.48-1.28,.05-.13,.08-.26,.16-.38,.07,.07,.1,.17,.13,.26,.04,.14,.15,.24,.21,.37,.09,.18,.18,.37,.27,.55,.11,.2,.18,.41,.29,.61,.12,.2,.2,.42,.32,.63,.11,.19,.18,.41,.31,.59,.26,.37,.68,.65,1.14,.65,1.01,0,2.01,0,3.02,0,.13,0,.26,0,.39,.01,.08,.07,.13,.17,.19,.26,.1,.16,.24,.28,.38,.4,.51,.51,1.23,.8,1.95,.8,.32,0,.64-.02,.94-.13,.2-.08,.41-.16,.6-.26,.3-.2,.59-.43,.81-.72,.24-.31,.43-.66,.52-1.05,.17-.63,.13-1.32-.13-1.93-.23-.5-.58-.97-1.05-1.26-.16-.1-.32-.21-.5-.28-.21-.07-.41-.16-.63-.19-.2-.03-.4-.03-.6-.03-.54,0-1.09,.14-1.52,.47-.21,.12-.35,.31-.56,.42-.12,.19-.24,.39-.39,.56-.16,.02-.31,0-.47,0-.59,0-1.18,0-1.77,0-.06,0-.13,0-.19-.02-.06-.07-.09-.16-.13-.24-.22-.44-.44-.87-.65-1.3-.11-.19-.2-.39-.29-.58-.26-.48-.48-.97-.74-1.45-.18-.36-.37-.71-.53-1.08-.11-.2-.21-.41-.33-.61-.07-.12-.21-.19-.32-.27-.1-.07-.17-.17-.29-.21-.13-.05-.27-.11-.42-.12-.21,0-.43-.02-.62,.07-.36,.11-.67,.38-.84,.73-.13,.25-.21,.52-.31,.79-.53,1.38-1.04,2.78-1.57,4.16-.07,.16-.12,.33-.18,.49-.24,.6-.45,1.21-.69,1.82-.03,.06-.04,.14-.11,.16-.12-.46-.22-.93-.35-1.38-.23-.96-.48-1.91-.71-2.86-.14-.55-.27-1.1-.42-1.65-.12-.55-.27-1.09-.41-1.63-.15-.62-.3-1.24-.46-1.86-.05-.19-.08-.38-.14-.57-.08-.24-.11-.48-.18-.72-.15-.61-.31-1.21-.46-1.82-.09-.26-.09-.55-.22-.8-.19-.34-.48-.63-.86-.74-.32-.12-.67-.09-.99,.02-.43,.15-.76,.54-.89,.98-.19,.78-.39,1.55-.58,2.33-.04,.19-.09,.38-.14,.56-.16,.63-.31,1.26-.47,1.88-.06,.32-.17,.62-.24,.94-.04,.2-.1,.4-.15,.6-.05,.24-.14,.48-.18,.72-.05,.3-.16,.58-.22,.88-.09,.48-.25,.95-.35,1.43-.05,.25-.13,.49-.19,.74-.06,.2-.09,.41-.15,.61-.09,.01-.18,.01-.27,.01-1.26,0-2.51,0-3.76,0-.13,0-.26,0-.38-.02-.05-.06-.09-.13-.12-.19-.6-1.31-1.1-2.66-1.37-4.08-.13-.55-.2-1.11-.25-1.68-.03-.22,0-.44-.05-.65-.03-.29-.01-.59-.01-.88,.04-.41,.06-.82,.13-1.23,.06-.45,.17-.88,.29-1.32,.08-.3,.19-.58,.3-.87,.11-.29,.22-.57,.37-.84,.39-.81,.9-1.55,1.49-2.23,.26-.27,.51-.53,.78-.79,.26-.28,.58-.49,.87-.73,.1-.08,.21-.16,.32-.23,.37-.25,.75-.5,1.16-.68,.73-.38,1.52-.66,2.33-.84,.5-.12,1.02-.21,1.53-.23Z"/>
    </g>
  </g>
</svg>