<?xml version="1.0" encoding="UTF-8"?>
<svg id="Camada_2" data-name="Camada 2" xmlns="http://www.w3.org/2000/svg" viewBox="0 0 218 185.43">
  <defs>
    <style>
      .cls-1 {
        fill: #347530;
      }

      .cls-2 {
        fill: #1f1f1f;
      }
    </style>
  </defs>
  <g id="Camada_4" data-name="Camada 4">
    <g>
      <path class="cls-1" d="M201.38,153.94H16.62c-8.43,0-15.38-6.3-16.46-14.45-.09-.72-.16-1.45-.16-2.2v31.48c0,.75,.07,1.48,.16,2.2,1.08,8.15,8.03,14.45,16.46,14.45H201.38c8.43,0,15.38-6.3,16.46-14.45,.09-.72,.16-1.45,.16-2.19v-31.48c0,.75-.07,1.47-.16,2.19-1.08,8.15-8.03,14.45-16.46,14.45Z"/>
      <path class="cls-2" d="M201.38,0H16.62C7.44,0,0,7.45,0,16.65v120.65c0,.75,.07,1.48,.16,2.2,1.08,8.15,8.03,14.45,16.46,14.45H201.38c8.43,0,15.38-6.3,16.46-14.45,.09-.72,.16-1.45,.16-2.19V16.65c0-9.19-7.44-16.65-16.62-16.65Z"/>
    </g>
  </g>
</svg>